<svg width="64" height="64" viewBox="0 0 64 64" fill="none" xmlns="http://www.w3.org/2000/svg">
<g clip-path="url(#clip0_15_2)">
<path d="M31.999 47.9965C40.8356 47.9965 47.999 40.8331 47.999 31.9965C47.999 23.16 40.8356 15.9965 31.999 15.9965C23.1625 15.9965 15.999 23.16 15.999 31.9965C15.999 40.8331 23.1625 47.9965 31.999 47.9965Z" fill="white"/>
<path d="M18.1426 40.0001L4.28839 16.004C1.47922 20.868 0.000193807 26.3859 1.90455e-08 32.0028C-0.000193769 37.6198 1.47846 43.1378 4.28728 48.002C7.09611 52.8662 11.1361 56.9052 16.001 59.7129C20.8659 62.5205 26.3843 63.9978 32.0012 63.9962L45.8554 40.0001V39.9959C44.4522 42.4294 42.4329 44.4503 40.0007 45.8556C37.5685 47.2608 34.8092 48.0009 32.0002 48.0013C29.1912 48.0017 26.4316 47.2626 23.999 45.8579C21.5665 44.4534 19.5465 42.433 18.1426 40.0001Z" fill="url(#paint0_linear_15_2)"/>
<path d="M45.8544 39.9991L32.0003 63.9952C37.6173 63.996 43.1354 62.5179 47.9999 59.7096C52.8644 56.9013 56.9038 52.8618 59.712 47.9972C62.5201 43.1324 63.998 37.6142 63.997 31.9973C63.996 26.3803 62.5162 20.8627 59.7063 15.999H31.998L31.9945 16.0011C34.8035 15.9997 37.5633 16.738 39.9964 18.1417C42.4296 19.5454 44.4501 21.565 45.855 23.9975C47.2598 26.4299 47.9994 29.1894 47.9994 31.9983C47.9993 34.8073 47.2593 37.5667 45.8544 39.9991Z" fill="url(#paint1_linear_15_2)"/>
<path d="M31.999 44.6667C38.9946 44.6667 44.6657 38.9956 44.6657 32C44.6657 25.0044 38.9946 19.3333 31.999 19.3333C25.0034 19.3333 19.3324 25.0044 19.3324 32C19.3324 38.9956 25.0034 44.6667 31.999 44.6667Z" fill="#1A73E8"/>
<path d="M31.9991 16H59.7074C56.8996 11.1352 52.8604 7.09533 47.9961 4.28669C43.1318 1.47805 37.6137 -0.000398578 31.9968 8.06013e-08C26.3798 0.00039874 20.862 1.47963 15.9981 4.28897C11.1341 7.09829 7.09556 11.1387 4.28845 16.0039L18.1426 40L18.1461 40.0019C16.7405 37.5699 15.9999 34.8108 15.999 32.0018C15.9981 29.1928 16.7369 26.4331 18.1411 24.0003C19.5451 21.5675 21.5652 19.5472 23.9978 18.1429C26.4305 16.7384 29.1901 15.9994 31.9991 16Z" fill="url(#paint2_linear_15_2)"/>
</g>
<defs>
<linearGradient id="paint0_linear_15_2" x1="35.4628" y1="61.9977" x2="7.75339" y2="14.0035" gradientUnits="userSpaceOnUse">
<stop stop-color="#1E8E3E"/>
<stop offset="1" stop-color="#34A853"/>
</linearGradient>
<linearGradient id="paint1_linear_15_2" x1="27.3313" y1="64.0801" x2="55.0408" y2="16.0858" gradientUnits="userSpaceOnUse">
<stop stop-color="#FCC934"/>
<stop offset="1" stop-color="#FBBC04"/>
</linearGradient>
<linearGradient id="paint2_linear_15_2" x1="4.28846" y1="20.0009" x2="59.7074" y2="20.0009" gradientUnits="userSpaceOnUse">
<stop stop-color="#D93025"/>
<stop offset="1" stop-color="#EA4335"/>
</linearGradient>
<clipPath id="clip0_15_2">
<rect width="64" height="64" fill="white"/>
</clipPath>
</defs>
</svg>
